# xmcd
#
# Track frame offsets:
#	182
#	14035
#	29322
#	41195
#	54757
#	70815
#	83650
#	95937
#	107670
#	119865
#	134700
#	149195
#	164295
#	178672
#	191510
#	203402
#	218682
#	232462
#	243457
#
# Disc length: 3414
#
# Revision: 2
# Processed by: cddbd v1.5.1PL0 Copyright (c) Steve Scherf et al.
# Submitted via: FreeRIP 2.53 
# Normalized: r1:TDELIM( - )
#
DISCID=280d5413
DTITLE=Boogie Woogie - The Best of Boogie Woogie
DYEAR=1900
DGENRE=
TTITLE0=Roosevelt Sykes - Give Me Your Change
TTITLE1=Monkey Joe Coleman - Gonna Beat It to Memphis
TTITLE2=Little Brother Montgomery - Crescent City Blues
TTITLE3=Meade Lux Lewis - Honky Tonk Train Blues
TTITLE4=Meade Lux Lewis - Whistlin' Blues
TTITLE5=Jimmy Yancey - Yancey Stomp
TTITLE6=Jimmy Yancey - State Street Special
TTITLE7=Jimmy Yancey - Slow And Easy Blues
TTITLE8=Jimmy Yancey - The Mellow Blues
TTITLE9=Speckled Red - St. Louis Stomp
TTITLE10=Benny Goodman - Roll'Em
TTITLE11=Lionel Hampton - The Munson Street Breakdown
TTITLE12=Tommy Dorsey - Boogie Woogie
TTITLE13=Bob Zurke - Honky Tonk Train blues
TTITLE14=Bob Zurke - Cuban Boogie Woogie
TTITLE15=Pinetop Smith - Pinetop's Boogie Woogie
TTITLE16=Count Basie - Boogie Woogie
TTITLE17=Albert Ammons - Shoot For Joy
TTITLE18=Joe Turner and Pete Johnson - Roll'Em Pete
EXTD=
EXTT0=
EXTT1=
EXTT2=
EXTT3=
EXTT4=
EXTT5=
EXTT6=
EXTT7=
EXTT8=
EXTT9=
EXTT10=
EXTT11=
EXTT12=
EXTT13=
EXTT14=
EXTT15=
EXTT16=
EXTT17=
EXTT18=
PLAYORDER=
